PathFileType	4	(X/Y/Z)	/Users/itak/Documents/Research/Walk-IL/dataset/trc/00129_00007.trc
DataRate	CameraRate	NumFrames	NumMarkers	Units	OrigDataRate	OrigDataStartFrame	OrigNumFrames
100.000000	100.000000	4	53	mm	100.000000	0	721
Frame#	Time	RPSI			LPSI			L3			STRN			T10			C7			CLAV			RBAK			LBAK			LSHO			LUPA			LAEL			LAOL			LWTS			LWPS			LFRA			LIFD			LHPS			LHTS			RSHO			RUPA			RAEL			RAOL			RWTS			RWPS			RFRA			RIFD			RHTS			RHPS			RBHD			LFHD			RFHD			LBHD			LHIP			RHIP			RASI			LASI			LKNE			LTHI			LANK			LTIP			LTOE			LMT1			LMT5			LHEE			RKNE			RTHI			RANK			RTIP			RTOE			RMT1			RMT5			RHEE			
		X1	Y1	Z1	X2	Y2	Z2	X3	Y3	Z3	X4	Y4	Z4	X5	Y5	Z5	X6	Y6	Z6	X7	Y7	Z7	X8	Y8	Z8	X9	Y9	Z9	X10	Y10	Z10	X11	Y11	Z11	X12	Y12	Z12	X13	Y13	Z13	X14	Y14	Z14	X15	Y15	Z15	X16	Y16	Z16	X17	Y17	Z17	X18	Y18	Z18	X19	Y19	Z19	X20	Y20	Z20	X21	Y21	Z21	X22	Y22	Z22	X23	Y23	Z23	X24	Y24	Z24	X25	Y25	Z25	X26	Y26	Z26	X27	Y27	Z27	X28	Y28	Z28	X29	Y29	Z29	X30	Y30	Z30	X31	Y31	Z31	X32	Y32	Z32	X33	Y33	Z33	X34	Y34	Z34	X35	Y35	Z35	X36	Y36	Z36	X37	Y37	Z37	X38	Y38	Z38	X39	Y39	Z39	X40	Y40	Z40	X41	Y41	Z41	X42	Y42	Z42	X43	Y43	Z43	X44	Y44	Z44	X45	Y45	Z45	X46	Y46	Z46	X47	Y47	Z47	X48	Y48	Z48	X49	Y49	Z49	X50	Y50	Z50	X51	Y51	Z51	X52	Y52	Z52	X53	Y53	Z53	

1	0	338.0349426269531	1132.225219726562	1119.175903320312	330.8370971679688	1134.242553710938	1253.405029296875	340.699951171875	1165.409545898438	1188.429077148438	130.6209411621094	1366.811767578125	1176.682739257812	384.5072021484375	1311.404907226562	1191.870727539062	358.84619140625	1603.829467773438	1204.598999023438	173.3060607910156	1500.103881835938	1183.146728515625	412.3722839355469	1417.931640625	1119.972412109375	357.373046875	1583.171142578125	1306.60791015625	266.026611328125	1572.11279296875	1368.831298828125	277.2608032226562	1440.804443359375	1439.93603515625	253.8860778808594	1221.39208984375	1457.531127929688	325.6706237792969	1207.126586914062	1409.37890625	153.9095764160156	965.4721069335938	1393.142456054688	228.8653259277344	937.5787963867188	1431.113403320312	232.3319244384766	1104.72900390625	1457.05712890625	126.5434341430664	785.4864501953125	1345.36669921875	199.1101379394531	863.4790649414062	1426.28662109375	134.9181213378906	875.5687866210938	1399.309692382812	314.518798828125	1584.608520507812	1019.319274902344	334.9154357910156	1511.222290039062	956.9944458007812	343.326904296875	1216.15185546875	937.2869262695312	345.7908630371094	1215.727905273438	1033.7392578125	193.5894012451172	976.66357421875	943.5842895507812	270.4049072265625	957.550048828125	918.2481079101562	319.6073608398438	1143.250732421875	920.984130859375	162.7976531982422	783.0155639648438	960.9225463867188	161.8746643066406	868.7922973632812	936.3528442382812	231.1193389892578	858.7620239257812	912.6334838867188	332.8519592285156	1778.8056640625	1125.563110351562	161.9119720458984	1848.816772460938	1246.887573242188	170.5809478759766	1854.784423828125	1118.327270507812	330.2931518554688	1776.838500976562	1261.030883789062	233.2340698242188	1045.414428710938	1354.60986328125	220.0485229492188	1033.179321289062	996.362060546875	133.8987731933594	1108.48388671875	1041.933959960938	129.4915161132812	1109.099365234375	1310.087768554688	218.0215148925781	543.3811645507812	1321.920288085938	236.3011322021484	690.37353515625	1353.551147460938	331.8977966308594	44.38316345214844	1316.776611328125	315.3597106933594	296.4456481933594	1352.2587890625	106.4550018310547	40.74032974243164	1234.580810546875	192.2328033447266	43.81893920898438	1209.340942382812	204.0437927246094	42.22042083740234	1326.018432617188	406.0157470703125	43.37462615966797	1262.634033203125	242.1141662597656	542.5787353515625	1034.546752929688	206.4467468261719	820.5811767578125	1002.719970703125	351.0185546875	34.23130798339844	1061.170532226562	270.8872680664062	410.270751953125	1026.261474609375	118.8293838500977	48.4600944519043	1112.851928710938	178.8916015625	37.79498672485352	1157.009887695312	218.0024261474609	41.86272430419922	1038.70703125	408.8102111816406	36.29907989501953	1109.667602539062	
2	0.01	337.977294921875	1132.236450195312	1119.243286132812	330.77587890625	1134.249633789062	1253.45263671875	340.6435852050781	1165.415771484375	1188.488403320312	130.5581359863281	1366.801147460938	1176.727294921875	384.4179992675781	1311.435668945312	1191.942016601562	358.6990356445312	1603.85400390625	1204.656005859375	173.1942138671875	1500.0908203125	1183.167846679688	412.281982421875	1417.952514648438	1120.064575195312	357.2110290527344	1583.203735351562	1306.664184570312	265.8880615234375	1572.130126953125	1368.86474609375	277.27001953125	1440.802856445312	1439.9638671875	254.3252105712891	1221.4072265625	1457.546264648438	325.8786315917969	1207.157348632812	1409.07470703125	154.0190277099609	965.556640625	1393.533813476562	229.1460723876953	937.5880737304688	1431.075561523438	232.8222808837891	1104.702026367188	1457.08447265625	126.7099761962891	785.4677734375	1345.809204101562	199.3104858398438	863.4900512695312	1426.346557617188	134.9990081787109	875.6913452148438	1399.6650390625	314.3739624023438	1584.591674804688	1019.370422363281	334.8450927734375	1511.19482421875	957.065673828125	343.4544677734375	1216.121337890625	937.578369140625	345.78125	1215.745727539062	1034.024780273438	193.6465606689453	976.6281127929688	943.8897094726562	270.5290832519531	957.507568359375	918.624267578125	319.7366333007812	1143.193115234375	921.2882690429688	162.8517150878906	782.95947265625	961.3436279296875	161.9559173583984	868.7553100585938	936.7052001953125	231.25341796875	858.6937255859375	913.0350341796875	332.7440185546875	1778.779052734375	1125.576782226562	161.7546081542969	1848.876098632812	1246.7998046875	170.5005340576172	1854.78369140625	1118.254760742188	330.0898132324219	1776.847412109375	1261.082397460938	233.26220703125	1045.392211914062	1354.652954101562	219.9678192138672	1033.1943359375	996.3859252929688	133.8170776367188	1108.4716796875	1042.0244140625	129.4603576660156	1109.085083007812	1310.168701171875	218.0303344726562	543.35302734375	1321.970336914062	236.3165283203125	690.354248046875	1353.607055664062	331.9034729003906	44.37788009643555	1316.778930664062	315.3734130859375	296.4337768554688	1352.275512695312	106.4585952758789	40.73758697509766	1234.583984375	192.2352905273438	43.81935119628906	1209.342651367188	204.0522918701172	42.22590637207031	1326.014526367188	406.018798828125	43.37637710571289	1262.636840820312	242.0806579589844	542.5779418945312	1034.566772460938	206.45263671875	820.5765380859375	1002.774291992188	351.014404296875	34.23287200927734	1061.17333984375	270.8628540039062	410.2773132324219	1026.275512695312	118.8253326416016	48.46084976196289	1112.860717773438	178.8839263916016	37.79544830322266	1157.019165039062	217.9952697753906	41.85498428344727	1038.711181640625	408.8059692382812	36.29846572875977	1109.669921875	
3	0.02	337.9072265625	1132.249633789062	1119.323974609375	330.69873046875	1134.259521484375	1253.514770507812	340.5734252929688	1165.423095703125	1188.563354492188	130.4853363037109	1366.78369140625	1176.78125	384.3039855957031	1311.471313476562	1192.031982421875	358.5106201171875	1603.884765625	1204.725952148438	173.0481262207031	1500.071655273438	1183.211547851562	412.1652221679688	1417.977172851562	1120.1787109375	357.0160522460938	1583.24169921875	1306.72998046875	265.7191467285156	1572.149169921875	1368.910522460938	277.2950439453125	1440.798095703125	1440.000366210938	254.8434906005859	1221.414916992188	1457.571166992188	326.1358642578125	1207.190673828125	1408.693725585938	154.13818359375	965.66552734375	1394.057006835938	229.4878234863281	937.5980834960938	1431.04052734375	233.4104156494141	1104.673828125	1457.130249023438	126.9131240844727	785.431396484375	1346.423461914062	199.5650787353516	863.5026245117188	1426.438354492188	135.0752563476562	875.8195190429688	1400.149536132812	314.1962280273438	1584.56884765625	1019.431945800781	334.7533264160156	1511.15576171875	957.1561279296875	343.6034545898438	1216.081298828125	937.9344482421875	345.77685546875	1215.764770507812	1034.373779296875	193.7158050537109	976.574951171875	944.2745361328125	270.6687316894531	957.4436645507812	919.0924682617188	319.8829650878906	1143.113891601562	921.6688842773438	162.9358673095703	782.893310546875	961.8810424804688	162.0489807128906	868.6948852539062	937.1604614257812	231.4232330322266	858.6029052734375	913.542236328125	332.6029663085938	1778.746704101562	1125.599853515625	161.5501708984375	1848.944580078125	1246.700317382812	170.3949127197266	1854.779052734375	1118.169189453125	329.8418579101562	1776.859252929688	1261.146362304688	233.2935028076172	1045.365844726562	1354.70703125	219.8396301269531	1033.211547851562	996.4024047851562	133.7160034179688	1108.452392578125	1042.135986328125	129.3736114501953	1109.090942382812	1310.234375	218.03369140625	543.3186645507812	1322.028076171875	236.3270111083984	690.3305053710938	1353.672119140625	331.908935546875	44.37319183349609	1316.779052734375	315.3903503417969	296.4174194335938	1352.296630859375	106.4615859985352	40.73480606079102	1234.585571289062	192.2378845214844	43.81977081298828	1209.344482421875	204.0616912841797	42.2325439453125	1326.01123046875	406.020263671875	43.37721633911133	1262.638427734375	242.0497589111328	542.5763549804688	1034.59130859375	206.457275390625	820.5714111328125	1002.841796875	351.0099792480469	34.23432540893555	1061.176879882812	270.8394775390625	410.2857055664062	1026.294799804688	118.8215789794922	48.46224975585938	1112.869384765625	178.8760070800781	37.79508209228516	1157.028198242188	217.9875335693359	41.84784698486328	1038.715698242188	408.8041687011719	36.2976188659668	1109.67041015625	
4	0.03	337.8285827636719	1132.264282226562	1119.412841796875	330.6092834472656	1134.272094726562	1253.59033203125	340.4916687011719	1165.431274414062	1188.651245117188	130.4068145751953	1366.758666992188	1176.842529296875	384.1695861816406	1311.508666992188	1192.13671875	358.2874145507812	1603.920288085938	1204.805053710938	172.8716735839844	1500.046142578125	1183.283081054688	412.0238952636719	1418.003662109375	1120.30908203125	356.8003540039062	1583.2822265625	1306.80029296875	265.5298461914062	1572.168212890625	1368.969360351562	277.3395385742188	1440.789428710938	1440.045043945312	255.4013671875	1221.409301757812	1457.607299804688	326.426513671875	1207.223266601562	1408.257080078125	154.2550201416016	965.792724609375	1394.697998046875	229.8714904785156	937.60791015625	1431.017822265625	234.0579986572266	1104.648803710938	1457.200073242188	127.1470413208008	785.372802734375	1347.201782226562	199.8643951416016	863.5162353515625	1426.5673828125	135.1420440673828	875.9393310546875	1400.756469726562	313.9946594238281	1584.540161132812	1019.500122070312	334.6418762207031	1511.10498046875	957.2620849609375	343.7601623535156	1216.03271484375	938.33740234375	345.7805480957031	1215.782958984375	1034.768188476562	193.7969207763672	976.503173828125	944.7213745117188	270.8106994628906	957.3568725585938	919.63134765625	320.0321655273438	1143.01416015625	922.1090698242188	163.048583984375	782.81884765625	962.51708984375	162.1479339599609	868.6065673828125	937.7052612304688	231.6196136474609	858.491455078125	914.1357421875	332.4318542480469	1778.710693359375	1125.63427734375	161.3037567138672	1849.015625	1246.5986328125	170.2666015625	1854.769165039062	1118.077270507812	329.5637512207031	1776.874267578125	1261.219970703125	233.3237609863281	1045.336669921875	1354.77001953125	219.6510772705078	1033.230102539062	996.4035034179688	133.6004943847656	1108.425170898438	1042.263061523438	129.21728515625	1109.1240234375	1310.270263671875	218.0284423828125	543.279296875	1322.089233398438	236.328125	690.3034057617188	1353.74169921875	331.9140625	44.37052536010742	1316.776733398438	315.4095764160156	296.396240234375	1352.322021484375	106.4634399414062	40.73224258422852	1234.584838867188	192.2404632568359	43.82002639770508	1209.346313476562	204.0708618164062	42.23944473266602	1326.008666992188	406.0185241699219	43.37622833251953	1262.637939453125	242.0276489257812	542.5740356445312	1034.6201171875	206.4601593017578	820.566162109375	1002.91943359375	351.0059204101562	34.23529815673828	1061.1806640625	270.8221740722656	410.2960510253906	1026.319213867188	118.8188095092773	48.46461868286133	1112.876708984375	178.8689422607422	37.79339599609375	1157.03564453125	217.9803924560547	41.84280776977539	1038.72021484375	408.8057861328125	36.29661560058594	1109.668579101562	
